<svg class="band-logo" data-name="Layer 1" xmlns="http://www.w3.org/2000/svg" viewBox="0 0 560.96322 61.89284"><defs><style>.cls-1{fill:#ffffff;}</style></defs><title>HFM_Logo</title><path class="cls-1" d="M60.90942,64.9534H46.78933V63.3845h2.19646c2.35286,0,2.98042-.78494,2.98042-3.0596V36.39942H15.72511V60.3249c0,2.27466.62756,3.0596,2.98043,3.0596H20.902v1.5689H6.7819V63.3845H8.97836c2.35384,0,2.9814-.78494,2.9814-3.0596V10.905c0-2.27564-.62756-3.0596-2.9814-3.0596H6.7819V6.27655H20.902v1.5689H18.70554c-2.35287,0-2.98043.784-2.98043,3.0596V34.83052h36.2411V10.905c0-2.27564-.62756-3.0596-2.98042-3.0596H46.78933V6.27655H60.90942v1.5689H58.713c-2.35384,0-2.98139.784-2.98139,3.0596V60.3249c0,2.27466.62755,3.0596,2.98139,3.0596h2.19646Z" transform="translate(-6.7819 -4.62945)"/><path class="cls-1" d="M117.0555,64.9534h-34.594V63.3845H84.657c2.35384,0,2.9814-.78494,2.9814-3.0596V10.905c0-2.27564-.62756-3.0596-2.9814-3.0596H82.46151V6.27655H114.1523v6.433c-2.51024-3.29518-3.52978-4.86408-9.256-4.86408H91.40375V32.16388h16.63033c4.15734,0,5.09868-1.72627,5.96182-3.60895v8.78583c-.86314-1.88268-1.80448-3.60895-5.96182-3.60895H91.40375V63.3845H107.5639c5.25508,0,7.76532-1.96088,10.98132-4.39292Z" transform="translate(-6.7819 -4.62945)"/><path class="cls-1" d="M172.84088,33.73181V60.3249c0,2.27466.62756,3.0596,2.98042,3.0596h2.19646v1.5689h-14.1201V63.3845h2.19646c2.35384,0,2.9814-.78494,2.9814-3.0596V10.905c0-2.27564-.62756-3.0596-2.9814-3.0596h-2.19646V6.27655h33.02607v5.96182c-1.09872-2.03908-1.64808-4.39292-7.6881-4.39292H172.84088V32.16388h18.12c4.15832,0,5.09966-1.72627,5.9628-3.60895v8.78583c-.86314-1.88268-1.80448-3.60895-5.9628-3.60895Z" transform="translate(-6.7819 -4.62945)"/><path class="cls-1" d="M267.92206,64.9534H251.6055V63.3845h1.4907c1.4907,0,2.90222-.47018,2.90222-2.27466a9.2652,9.2652,0,0,0-.86314-2.9032l-8.0791-20.00274H224.856l-8.08008,19.53256c-.78494,1.7253-1.01954,2.04006-1.01954,3.1378,0,2.51024,2.19646,2.51024,3.608,2.51024h1.80448v1.5689H206.49939V63.3845h1.5689c3.52978,0,5.02048-.86314,6.1974-3.76536L237.17162,4.62945,259.3718,58.5996c1.33332,3.2942,2.74582,4.7849,6.98136,4.7849h1.5689ZM236.07291,11.21883,225.48357,36.635h20.86587Z" transform="translate(-6.7819 -4.62945)"/><path class="cls-1" d="M296.173,64.9534H282.0529V63.3845h2.19646c2.35384,0,2.9814-.78494,2.9814-3.0596V10.905c0-2.27564-.62756-3.0596-2.9814-3.0596H282.0529V6.27655H296.173v1.5689h-2.19646c-2.35286,0-2.98042.784-2.98042,3.0596V60.3249c0,2.27466.62756,3.0596,2.98042,3.0596H296.173Z" transform="translate(-6.7819 -4.62945)"/><path class="cls-1" d="M353.12748,64.9534h-36.3193V63.3845h2.19646c2.35286,0,2.98042-.78494,2.98042-3.0596V10.905c0-2.27564-.62756-3.0596-2.98042-3.0596h-2.19646V6.27655h14.1201v1.5689h-2.19646c-2.35384,0-2.9814.784-2.9814,3.0596V63.3845h18.906c2.58844,0,4.70572-.15738,7.05956-2.432l3.216-3.05862Z" transform="translate(-6.7819 -4.62945)"/><path class="cls-1" d="M400.91,14.27745c-1.33332-2.27466-5.02048-7.53072-11.68806-7.53072-5.41246,0-9.88455,4.23652-9.88455,9.1006,0,6.98136,9.96275,12.6294,17.25789,17.96365,5.02048,3.68619,9.02239,9.256,9.02239,15.689a16.66974,16.66974,0,0,1-16.63131,16.55214,17.51027,17.51027,0,0,1-10.9823-3.53076,6.89854,6.89854,0,0,0-3.608-1.5689,7.20212,7.20212,0,0,0-2.19743.70674V52.95156c2.9814,5.02048,7.13874,11.53068,16.31655,11.53068,7.13972-.1564,13.80632-4,13.80632-13.02138,0-10.51114-7.29416-14.51208-13.09958-18.66942-6.58938-4.70767-12.39479-8.31565-12.39479-15.37619A12.14378,12.14378,0,0,1,388.83,5.17881a11.86963,11.86963,0,0,1,7.37236,2.11728,4.78483,4.78483,0,0,0,2.6686,1.17692A7.19909,7.19909,0,0,0,400.91,7.92365Z" transform="translate(-6.7819 -4.62945)"/><path class="cls-1" d="M510.037,64.9534H495.75951V63.3845h2.35384a2.04687,2.04687,0,0,0,2.35383-2.11826c0-.784-.1564-1.5689-.1564-2.432l-3.216-39.92825h-.15835L477.48207,66.5223,457.16556,21.65177h-.1564l-3.609,37.33981c-.2346,1.6471,0,4.39292,3.216,4.39292h1.72628v1.5689H446.18424V63.3845h1.64612c3.53076,0,3.53076-1.88268,3.84356-4.31472L455.754,18.74955l-4.00192-8.94322c-.94036-1.96088-2.03908-1.96088-3.4506-1.96088h-2.11728V6.27655h7.84352l24.553,53.65637L500.389,6.27655h6.90316v1.5689H504.6255c-2.66859,0-4.31472,1.6471-4.31472,3.37338,0,.86314.0782,2.19646.1564,3.1378l3.609,44.55675c.1564,2.90222.94036,4.47112,4.15636,4.47112H510.037Z" transform="translate(-6.7819 -4.62945)"/><path class="cls-1" d="M566.25344,64.9534h-34.594V63.3845h2.19744c2.35188,0,2.98139-.78494,2.98139-3.0596V10.905c0-2.27564-.62951-3.0596-2.98139-3.0596h-2.19744V6.27655H563.3522v6.433c-2.51024-3.29518-3.53076-4.86408-9.257-4.86408H540.60364V32.16388H557.233c4.15832,0,5.09868-1.72627,5.9628-3.60895v8.78583c-.86412-1.88268-1.80448-3.60895-5.9628-3.60895H540.60364V63.3845h16.1582c5.257,0,7.76728-1.96088,10.98328-4.39292Z" transform="translate(-6.7819 -4.62945)"/></svg>